<?xml version="1.0" standalone="no"?>
<!DOCTYPE svg PUBLIC "-//W3C//DTD SVG 20010904//EN"
 "http://www.w3.org/TR/2001/REC-SVG-20010904/DTD/svg10.dtd">
<svg version="1.0" xmlns="http://www.w3.org/2000/svg"
 width="688.000000pt" height="688.000000pt" viewBox="0 0 688.000000 688.000000"
 preserveAspectRatio="xMidYMid meet">
<metadata>
Created by potrace 1.11, written by Peter Selinger 2001-2013
</metadata>
<g transform="translate(0.000000,688.000000) scale(0.100000,-0.100000)"
fill="#000000" stroke="none">
<path d="M629 6077 c-4 -46 -3 -607 1 -608 35 -5 90 -2 90 6 0 7 3 7 8 0 4 -6
95 -10 237 -10 142 0 233 4 237 10 5 6 8 6 8 -1 0 -11 52 -10 71 1 5 4 9 3 9
-2 0 -4 52 -8 115 -8 70 0 115 4 115 10 0 7 3 7 8 0 4 -6 95 -10 237 -10 142
0 233 4 237 10 5 7 8 7 8 0 0 -6 87 -10 241 -9 205 0 242 -2 247 -15 8 -21 7
-1689 -1 -1697 -4 -4 -46 -7 -94 -7 -52 0 -91 -5 -95 -11 -6 -8 -8 -8 -8 0 0
15 -230 15 -230 0 0 -8 -3 -8 -8 0 -10 15 -384 15 -394 0 -6 -8 -8 -8 -8 0 0
15 -230 15 -230 0 0 -8 -3 -8 -8 0 -10 15 -212 14 -212 0 0 -8 -3 -8 -8 0 -10
14 -165 14 -174 0 -6 -8 -8 -8 -8 0 0 15 -222 15 -232 0 -5 -8 -8 -8 -8 0 0 8
-110 12 -390 13 l-389 2 0 -1486 0 -1485 1565 0 1565 0 -1 350 c-1 259 -5 350
-13 350 -8 0 -9 3 -1 8 13 9 13 161 0 181 -6 9 -5 12 1 8 6 -4 10 8 10 28 0
19 -5 35 -11 35 -6 0 -4 5 4 10 12 8 13 13 3 29 -7 11 -9 22 -4 25 5 3 9 17 9
31 0 15 -5 22 -12 18 -8 -5 -8 -3 0 8 12 16 13 68 1 86 -4 6 -3 14 2 17 13 8
11 56 -3 56 -8 0 -8 2 0 8 12 8 13 61 1 79 -4 6 -3 14 2 17 4 3 9 17 9 31 0
15 -5 22 -12 18 -8 -5 -8 -3 0 8 12 16 13 68 1 86 -4 6 -3 14 1 17 12 7 10
357 -2 375 -6 9 -5 12 1 8 14 -9 12 101 -1 122 -6 9 -5 12 1 8 14 -9 12 56 -2
65 -7 5 -7 8 1 8 7 0 11 137 13 456 1 366 -1 454 -11 448 -10 -6 -10 -4 -2 7
12 16 13 68 1 86 -4 6 -3 14 2 17 13 8 11 56 -3 56 -8 0 -8 2 0 8 12 8 13 61
1 79 -4 6 -3 14 2 17 4 3 9 17 9 31 0 15 -5 22 -12 18 -8 -5 -8 -3 0 8 12 16
13 68 1 86 -4 6 -3 14 1 17 11 7 10 126 -1 143 -4 6 -3 14 2 17 4 3 8 17 9 31
0 15 -5 22 -12 18 -8 -5 -8 -3 0 8 12 16 13 68 1 86 -4 6 -3 14 2 17 13 8 11
56 -3 56 -8 0 -8 2 0 8 12 8 13 61 1 79 -4 6 -3 14 2 17 4 3 9 17 9 31 0 14
-5 22 -11 18 -6 -4 -7 -1 -1 8 12 19 14 78 2 85 -5 4 -5 10 0 17 13 16 11 50
-2 59 -7 5 -8 8 0 8 13 0 13 288 0 309 -6 9 -5 12 1 8 14 -9 12 101 -1 122 -6
9 -5 12 1 8 14 -9 12 56 -2 65 -6 5 -6 8 2 8 9 0 12 80 13 330 l0 330 -1250 0
c-988 0 -1250 -3 -1251 -13z m1581 -141 c0 -2 -8 -10 -17 -17 -16 -13 -17 -12
-4 4 13 16 21 21 21 13z m200 -10 c0 -2 -7 -7 -16 -10 -8 -3 -12 -2 -9 4 6 10
25 14 25 6z m-470 -42 c0 -8 -19 -13 -24 -6 -3 5 1 9 9 9 8 0 15 -2 15 -3z
m-49 -41 c13 -16 12 -17 -3 -4 -17 13 -22 21 -14 21 2 0 10 -8 17 -17z m-330
-90 c13 -16 12 -17 -3 -4 -10 7 -18 15 -18 17 0 8 8 3 21 -13z m-470 -70 c13
-16 12 -17 -3 -4 -17 13 -22 21 -14 21 2 0 10 -8 17 -17z m230 -170 c13 -16
12 -17 -3 -4 -10 7 -18 15 -18 17 0 8 8 3 21 -13z m1489 -97 c0 -2 -8 -10 -17
-17 -16 -13 -17 -12 -4 4 13 16 21 21 21 13z m-110 -210 c0 -2 -8 -10 -17 -17
-16 -13 -17 -12 -4 4 13 16 21 21 21 13z m181 -53 c13 -16 12 -17 -3 -4 -10 7
-18 15 -18 17 0 8 8 3 21 -13z m122 -188 c-3 -9 -8 -14 -10 -11 -3 3 -2 9 2
15 9 16 15 13 8 -4z m-118 -213 c-3 -3 -11 0 -18 7 -9 10 -8 11 6 5 10 -3 15
-9 12 -12z m-155 -616 c0 -2 -8 -10 -17 -17 -16 -13 -17 -12 -4 4 13 16 21 21
21 13z m-1409 -463 c13 -16 12 -17 -3 -4 -10 7 -18 15 -18 17 0 8 8 3 21 -13z
m-550 -310 c13 -16 12 -17 -3 -4 -10 7 -18 15 -18 17 0 8 8 3 21 -13z m1280 0
c13 -16 12 -17 -3 -4 -10 7 -18 15 -18 17 0 8 8 3 21 -13z m-1290 -176 c-10
-9 -11 -8 -5 6 3 10 9 15 12 12 3 -3 0 -11 -7 -18z m240 6 c13 -16 12 -17 -3
-4 -10 7 -18 15 -18 17 0 8 8 3 21 -13z m240 -6 c-10 -9 -11 -8 -5 6 3 10 9
15 12 12 3 -3 0 -11 -7 -18z m80 6 c13 -16 12 -17 -3 -4 -17 13 -22 21 -14 21
2 0 10 -8 17 -17z m240 -6 c-10 -9 -11 -8 -5 6 3 10 9 15 12 12 3 -3 0 -11 -7
-18z m480 0 c-10 -9 -11 -8 -5 6 3 10 9 15 12 12 3 -3 0 -11 -7 -18z m-1036
-58 c-9 -13 27 -8 37 6 5 7 8 7 8 0 0 -13 249 -14 269 -1 10 6 12 6 7 -3 -10
-15 25 -11 36 4 5 7 8 7 8 0 0 -7 189 -10 565 -10 311 0 565 -2 566 -5 3 -16
4 -1688 1 -1701 -2 -10 -13 -16 -25 -15 -12 1 -28 -2 -34 -7 -8 -6 -13 -6 -13
0 0 12 -38 14 -45 2 -4 -5 -11 -7 -16 -4 -19 12 -49 13 -49 2 0 -8 -3 -8 -8
-2 -10 14 -39 17 -47 5 -4 -6 -13 -7 -23 -2 -15 8 -71 9 -97 2 -5 -1 -12 -1
-15 0 -15 6 -128 5 -142 -2 -9 -4 -19 -5 -22 0 -6 10 -67 9 -84 -2 -7 -4 -12
-3 -12 2 0 5 -24 8 -52 7 -39 -2 -52 -6 -50 -16 2 -11 0 -11 -10 1 -17 20 -37
23 -54 9 -11 -9 -14 -9 -14 0 0 8 -5 9 -18 2 -10 -5 -24 -6 -30 -2 -15 9 -63
8 -80 -3 -7 -4 -12 -3 -12 2 0 5 -24 8 -52 7 -39 -2 -52 -6 -50 -16 2 -11 0
-11 -10 1 -17 20 -37 23 -54 9 -8 -6 -14 -7 -14 -2 0 11 -29 11 -48 -1 -6 -4
-12 -3 -12 1 0 8 -98 10 -125 3 -5 -1 -12 -1 -15 0 -15 6 -127 5 -141 -2 -9
-4 -19 -4 -23 -1 -10 11 -55 12 -62 2 -3 -5 -10 -7 -15 -4 -19 12 -49 13 -49
2 0 -8 -3 -8 -8 -2 -11 15 -32 17 -48 4 -8 -6 -14 -7 -14 -2 0 11 -29 11 -48
-1 -6 -4 -12 -3 -12 1 0 5 -9 9 -20 10 -11 1 -20 -3 -20 -8 0 -6 -6 -7 -12 -3
-19 12 -48 12 -48 0 0 -6 -5 -5 -12 2 -8 8 -13 43 -13 95 0 45 -4 87 -8 94 -4
6 -3 15 3 18 8 5 7 12 -2 23 -10 12 -10 14 0 8 6 -4 12 -3 12 3 0 5 -5 13 -10
16 -7 4 -7 12 -2 18 10 15 9 247 -1 265 -5 6 -5 12 0 12 10 0 10 441 0 457 -4
6 -4 14 0 16 10 7 10 578 0 595 -5 6 -4 12 1 12 6 0 9 20 7 44 -2 34 2 45 14
48 9 2 92 4 184 3 93 -1 170 3 173 7 3 4 7 8 10 8 3 0 2 -5 -1 -11z m-505
-363 c0 -2 -8 -10 -17 -17 -16 -13 -17 -12 -4 4 13 16 21 21 21 13z m70 -70
c0 -2 -8 -10 -17 -17 -16 -13 -17 -12 -4 4 13 16 21 21 21 13z m2031 -63 c13
-16 12 -17 -3 -4 -17 13 -22 21 -14 21 2 0 10 -8 17 -17z m-2501 -27 c0 -2 -8
-10 -17 -17 -16 -13 -17 -12 -4 4 13 16 21 21 21 13z m2621 -253 c13 -16 12
-17 -3 -4 -10 7 -18 15 -18 17 0 8 8 3 21 -13z m-2221 -67 c0 -2 -8 -10 -17
-17 -16 -13 -17 -12 -4 4 13 16 21 21 21 13z m-459 -53 c13 -16 12 -17 -3 -4
-10 7 -18 15 -18 17 0 8 8 3 21 -13z m529 -17 c0 -2 -8 -10 -17 -17 -16 -13
-17 -12 -4 4 13 16 21 21 21 13z m-169 -423 c13 -16 12 -17 -3 -4 -10 7 -18
15 -18 17 0 8 8 3 21 -13z m889 -433 c0 -5 -5 -10 -11 -10 -5 0 -7 5 -4 10 3
6 8 10 11 10 2 0 4 -4 4 -10z m-80 -104 c0 -2 -8 -10 -17 -17 -16 -13 -17 -12
-4 4 13 16 21 21 21 13z m871 -189 c-10 -9 -11 -8 -5 6 3 10 9 15 12 12 3 -3
0 -11 -7 -18z m-480 -74 c13 -16 12 -17 -3 -4 -17 13 -22 21 -14 21 2 0 10 -8
17 -17z m-751 -17 c0 -2 -8 -10 -17 -17 -16 -13 -17 -12 -4 4 13 16 21 21 21
13z"/>
<path d="M3750 5756 c0 -223 4 -337 10 -341 7 -4 7 -12 2 -18 -12 -16 -13 -55
-1 -62 5 -4 6 -12 2 -18 -11 -17 -12 -370 -1 -384 5 -7 5 -13 0 -17 -12 -7
-12 -55 -1 -62 5 -3 6 -11 2 -17 -11 -17 -12 -376 -1 -383 4 -3 5 -11 1 -17
-12 -19 -11 -81 1 -89 8 -5 7 -8 -1 -8 -16 0 -17 -36 -3 -45 7 -4 7 -12 2 -18
-12 -16 -13 -55 -1 -62 5 -4 6 -12 2 -18 -13 -20 -12 -370 1 -386 8 -11 8 -13
-1 -8 -9 6 -12 -72 -13 -338 l0 -346 377 2 c260 1 382 5 392 13 12 8 13 8 7
-2 -10 -16 25 -13 36 3 5 7 8 7 8 0 0 -13 889 -14 909 -1 9 6 12 5 7 -2 -4 -7
1 -10 14 -9 11 1 20 6 20 12 0 7 3 7 8 0 10 -15 493 -15 484 0 -4 6 -1 6 9 -1
8 -6 54 -10 109 -9 113 2 131 -4 126 -45 -2 -17 1 -30 7 -30 6 0 6 -5 0 -12
-10 -15 -11 -358 0 -375 4 -6 4 -14 0 -16 -10 -6 -9 -449 0 -464 4 -6 4 -14 0
-16 -10 -6 -9 -369 1 -385 4 -6 3 -12 -2 -12 -10 0 -9 -50 1 -67 4 -6 4 -14
-1 -17 -4 -2 -7 -62 -6 -133 1 -70 -1 -133 -3 -140 -5 -13 -41 -24 -48 -14 -5
9 -36 8 -51 -2 -6 -3 -14 -3 -18 0 -11 11 -65 12 -72 2 -3 -5 -10 -7 -15 -4
-19 12 -49 13 -49 2 0 -8 -3 -8 -8 -2 -11 15 -32 17 -48 4 -8 -6 -14 -7 -14
-2 0 11 -29 11 -48 -1 -6 -4 -12 -3 -12 2 0 5 -24 8 -52 7 -39 -2 -52 -6 -50
-16 2 -11 0 -11 -10 1 -17 20 -37 23 -54 9 -8 -6 -14 -7 -14 -2 0 11 -29 11
-48 -1 -6 -4 -12 -3 -12 1 0 12 -38 14 -45 2 -4 -5 -11 -7 -16 -4 -19 12 -49
13 -49 2 0 -8 -3 -8 -8 -2 -10 14 -39 18 -46 6 -4 -5 -18 -6 -34 -2 -25 7 -62
7 -87 1 -5 -1 -12 -1 -15 0 -15 6 -127 5 -141 -2 -9 -4 -19 -4 -23 -1 -10 10
-118 11 -137 1 -9 -4 -19 -4 -23 -1 -9 10 -118 11 -137 1 -9 -4 -19 -4 -23 -1
-10 11 -55 12 -62 2 -3 -5 -10 -7 -15 -4 -19 12 -49 13 -49 2 0 -8 -3 -8 -8
-2 -11 15 -32 17 -48 4 -8 -6 -14 -7 -14 -2 0 11 -29 11 -48 -1 -6 -4 -12 -3
-12 1 0 5 -9 9 -20 10 -11 1 -20 -3 -20 -8 0 -6 -6 -7 -12 -2 -18 11 -42 10
-50 -2 -5 -7 -10 -7 -15 0 -12 15 -34 17 -49 4 -8 -6 -14 -7 -14 -2 0 11 -29
11 -48 -1 -6 -4 -12 -3 -12 1 0 12 -38 14 -45 2 -4 -5 -11 -7 -16 -4 -19 12
-49 13 -49 2 0 -8 -3 -8 -8 -2 -10 14 -39 18 -46 6 -4 -5 -18 -6 -34 -2 -25 7
-62 7 -87 1 -5 -1 -12 -1 -15 0 -15 6 -127 5 -141 -2 -9 -4 -19 -4 -23 -1 -8
8 -125 11 -127 3 -7 -29 -6 -61 2 -65 5 -4 6 -12 2 -18 -11 -17 -12 -370 -1
-384 5 -7 5 -13 0 -17 -5 -3 -9 -34 -8 -68 l2 -63 1562 -3 1563 -2 -2 622 c-1
447 -5 627 -13 637 -8 11 -8 13 1 8 16 -10 16 772 0 792 -9 11 -9 13 0 8 9 -5
12 104 12 448 l1 456 -569 -2 c-397 -2 -568 -6 -563 -13 3 -7 0 -6 -9 0 -18
15 -69 15 -69 0 0 -8 -2 -8 -8 0 -9 15 -224 15 -234 0 -6 -8 -8 -8 -8 0 0 15
-230 15 -230 0 0 -8 -3 -8 -8 0 -10 15 -232 15 -232 0 0 -8 -3 -8 -8 0 -9 15
-224 15 -234 0 -6 -8 -8 -8 -8 0 0 7 -50 11 -155 11 -85 0 -158 3 -162 6 -8 8
-11 1652 -2 1687 5 21 11 25 45 25 21 0 45 4 52 8 6 5 12 5 12 0 0 -4 25 -8
55 -8 30 0 55 5 55 10 0 7 3 7 8 0 4 -5 30 -10 57 -10 28 0 53 5 57 10 5 7 8
7 8 0 0 -6 85 -10 235 -10 150 0 235 4 235 10 0 7 3 7 8 0 4 -6 96 -10 240
-10 148 0 232 4 232 10 0 7 3 7 8 0 4 -6 95 -10 237 -10 142 0 233 4 237 10 5
6 8 6 8 -1 0 -13 71 -8 80 6 3 4 5 142 4 307 l-1 298 -1251 3 -1252 2 0 -334z
m2300 180 c0 -2 -8 -10 -17 -17 -16 -13 -17 -12 -4 4 13 16 21 21 21 13z m38
-61 c-3 -3 -9 2 -12 12 -6 14 -5 15 5 6 7 -7 10 -15 7 -18z m-308 9 c0 -8 -19
-13 -24 -6 -3 5 1 9 9 9 8 0 15 -2 15 -3z m-49 -41 c13 -16 12 -17 -3 -4 -10
7 -18 15 -18 17 0 8 8 3 21 -13z m-330 -90 c13 -16 12 -17 -3 -4 -10 7 -18 15
-18 17 0 8 8 3 21 -13z m-470 -70 c13 -16 12 -17 -3 -4 -10 7 -18 15 -18 17 0
8 8 3 21 -13z m-1130 -330 c13 -16 12 -17 -3 -4 -10 7 -18 15 -18 17 0 8 8 3
21 -13z m130 -110 c13 -16 12 -17 -3 -4 -10 7 -18 15 -18 17 0 8 8 3 21 -13z
m-130 -370 c13 -16 12 -17 -3 -4 -17 13 -22 21 -14 21 2 0 10 -8 17 -17z m520
-40 c13 -16 12 -17 -3 -4 -17 13 -22 21 -14 21 2 0 10 -8 17 -17z m-520 -600
c13 -16 12 -17 -3 -4 -17 13 -22 21 -14 21 2 0 10 -8 17 -17z m244 -222 c3 -5
2 -12 -3 -15 -5 -3 -9 1 -9 9 0 17 3 19 12 6z m246 -8 c13 -16 12 -17 -3 -4
-17 13 -22 21 -14 21 2 0 10 -8 17 -17z m-31 -117 c0 -2 -8 -10 -17 -17 -16
-13 -17 -12 -4 4 13 16 21 21 21 13z m311 -243 c13 -16 12 -17 -3 -4 -10 7
-18 15 -18 17 0 8 8 3 21 -13z m280 -120 c13 -16 12 -17 -3 -4 -17 13 -22 21
-14 21 2 0 10 -8 17 -17z m400 -160 c13 -16 12 -17 -3 -4 -10 7 -18 15 -18 17
0 8 8 3 21 -13z m-730 -170 c13 -16 12 -17 -3 -4 -17 13 -22 21 -14 21 2 0 10
-8 17 -17z m240 -6 c-10 -9 -11 -8 -5 6 3 10 9 15 12 12 3 -3 0 -11 -7 -18z
m480 0 c-10 -9 -11 -8 -5 6 3 10 9 15 12 12 3 -3 0 -11 -7 -18z m240 6 c13
-16 12 -17 -3 -4 -10 7 -18 15 -18 17 0 8 8 3 21 -13z m240 -6 c-10 -9 -11 -8
-5 6 3 10 9 15 12 12 3 -3 0 -11 -7 -18z m240 6 c13 -16 12 -17 -3 -4 -10 7
-18 15 -18 17 0 8 8 3 21 -13z m240 -6 c-10 -9 -11 -8 -5 6 3 10 9 15 12 12 3
-3 0 -11 -7 -18z m373 -425 c2 -4 -4 -8 -14 -8 -10 0 -16 4 -14 8 3 4 9 8 14
8 5 0 11 -4 14 -8z m156 -160 c0 -5 -7 -9 -15 -9 -8 0 -12 4 -9 9 3 4 9 8 15
8 5 0 9 -4 9 -8z m4 -164 c-3 -4 -9 -8 -15 -8 -5 0 -9 4 -9 8 0 5 7 9 15 9 8
0 12 -4 9 -9z m-234 -152 c0 -2 -8 -10 -17 -17 -16 -13 -17 -12 -4 4 13 16 21
21 21 13z m-80 -320 c0 -2 -8 -10 -17 -17 -16 -13 -17 -12 -4 4 13 16 21 21
21 13z m240 -320 c0 -2 -8 -10 -17 -17 -16 -13 -17 -12 -4 4 13 16 21 21 21
13z m191 -43 c13 -16 12 -17 -3 -4 -17 13 -22 21 -14 21 2 0 10 -8 17 -17z
m-2521 -243 c0 -5 -5 -10 -11 -10 -5 0 -7 5 -4 10 3 6 8 10 11 10 2 0 4 -4 4
-10z m1280 0 c0 -5 -5 -10 -11 -10 -5 0 -7 5 -4 10 3 6 8 10 11 10 2 0 4 -4 4
-10z m-560 -104 c0 -2 -8 -10 -17 -17 -16 -13 -17 -12 -4 4 13 16 21 21 21 13z
m-560 -20 c-7 -7 -13 -7 -20 0 -6 6 -3 10 10 10 13 0 16 -4 10 -10z m1271 -3
c13 -16 12 -17 -3 -4 -10 7 -18 15 -18 17 0 8 8 3 21 -13z m-1916 -112 c3 -5
2 -12 -3 -15 -5 -3 -9 1 -9 9 0 17 3 19 12 6z m775 -75 c0 -2 -8 -10 -17 -17
-16 -13 -17 -12 -4 4 13 16 21 21 21 13z m1280 0 c0 -2 -8 -10 -17 -17 -16
-13 -17 -12 -4 4 13 16 21 21 21 13z m-2005 -86 c-3 -5 -12 -10 -18 -10 -7 0
-6 4 3 10 19 12 23 12 15 0z m1280 0 c-3 -5 -12 -10 -18 -10 -7 0 -6 4 3 10
19 12 23 12 15 0z"/>
</g>
</svg>
